<svg width="1037" height="288" viewBox="0 0 1037 288" fill="none" xmlns="http://www.w3.org/2000/svg">
<g clip-path="url(#clip0_37_19)">
<path fill-rule="evenodd" clip-rule="evenodd" d="M194.79 263.17C186.15 253.99 171.03 241.04 159.3 230.85C177.71 219.76 189.21 204.01 189.21 186.52V177.59C189.21 153.1 167.57 134.76 143.33 125.84C142.74 125.62 142.14 125.42 141.54 125.22L136.82 130.9C145.17 133.91 152.83 137.88 159.3 142.85C200.81 174.66 162.79 221.58 94.6 221.58C26.41 221.58 -11.66 174.57 30.01 142.77C36.14 138.09 43.34 134.28 51.21 131.34C50.32 130.28 49.47 129.2 48.67 128.11L45.98 125.67C40.51 127.68 35.33 130.07 30.59 132.86C11.79 143.96 0 159.89 0 177.59V179.64C0 213.2 42.36 240.4 94.61 240.4C105.15 240.4 115.29 239.29 124.76 237.25C131.68 246.17 161.51 273.09 166.92 279.18C172.63 285.6 181.31 292.16 191.95 284.64C200.82 278.38 201.69 270.49 194.8 263.17H194.79Z" fill="#C6C6C6"/>
<path fill-rule="evenodd" clip-rule="evenodd" d="M139.13 128.13L136.83 130.9C145.18 133.91 152.84 137.88 159.31 142.85C200.82 174.66 162.8 221.58 94.61 221.58C26.42 221.58 -11.66 174.57 30.01 142.77C36.14 138.09 43.34 134.28 51.21 131.34C50.42 130.41 49.67 129.46 48.95 128.5C24.07 137.82 7.47998 154.53 7.47998 173.6C7.47998 202.83 46.46 226.53 94.55 226.53C142.64 226.53 181.62 202.83 181.62 173.6C181.62 154.28 164.58 137.38 139.14 128.13H139.13Z" fill="#D8D8D8"/>
<path d="M189.365 282.106C194.628 278.814 196.659 272.573 193.903 268.167C191.147 263.761 184.646 262.859 179.383 266.151C174.121 269.443 172.089 275.684 174.845 280.09C177.602 284.496 184.102 285.398 189.365 282.106Z" fill="white"/>
<path fill-rule="evenodd" clip-rule="evenodd" d="M174.03 263.22L131.42 225.91C131.3 225.8 131.14 225.76 130.98 225.81C129.47 226.28 121.17 228.81 111.12 230.57C109.32 230.88 109.56 233.53 111.38 233.52C117.96 233.49 125.95 232.45 128.46 231.65C128.62 231.6 128.78 231.63 128.9 231.74L168.28 271.53C168.47 271.71 168.84 271.73 168.94 271.48C169.69 269.51 172.05 265.23 173.96 263.93C174.21 263.76 174.25 263.42 174.03 263.21V263.22Z" fill="white"/>
<path d="M106.41 180.02L125.13 185.95L95.5099 217.92C95.2099 217.92 94.9099 217.93 94.6099 217.93C80.1999 217.93 67.2399 215.71 56.2399 211.94L53.9899 196.28L51.1299 176.37L70.5599 168.67L106.4 180.02H106.41ZM81.4199 164.37L85.0699 165.53L77.7299 158.19L75.6199 162.54L81.4199 164.38V164.37ZM103.28 171.3L108.15 172.84L129.74 179.68L148.01 172.96L156.57 151.58L121.99 148.76L103.28 171.3ZM134.2 134.06L124.87 145.3L158.01 148L158.18 147.57C157.21 146.73 156.19 145.89 155.11 145.07C149.09 140.5 141.97 136.83 134.2 134.05V134.06Z" fill="#BE91F9"/>
<path opacity="0.5" fill-rule="evenodd" clip-rule="evenodd" d="M170.11 164.84C168.63 159.87 165.67 154.96 161.06 150.28L152.66 171.26L170.11 164.84ZM137.79 210.14C158.74 201.63 171.35 187.2 171.24 172.28L127.99 188.27L119.77 197.14L137.8 210.14H137.79ZM100.62 217.8L117.25 199.85L133.67 211.69C124.07 215.07 112.93 217.25 100.62 217.79V217.8Z" fill="#D2B6FF"/>
<path fill-rule="evenodd" clip-rule="evenodd" d="M22.4799 187.73C27.9899 196.89 38.3499 204.99 52.3199 210.49L47.6199 177.76L22.4799 187.72V187.73ZM43.9599 138.88C40.4699 140.7 37.1999 142.75 34.1999 145.01C19.5699 156.06 15.4399 169.09 19.3799 181.06L67.7799 161.87L70.8899 155.44L43.9599 138.87V138.88ZM70.3199 150.77L47.8799 136.96C49.8599 136.05 51.9099 135.21 54.0099 134.44C54.2899 134.73 54.5699 135.02 54.8599 135.31L70.3299 150.78L70.3199 150.77Z" fill="#D2B6FF"/>
<path fill-rule="evenodd" clip-rule="evenodd" d="M43.96 138.88C42.81 139.48 41.68 140.11 40.58 140.76L69.34 158.66L70.89 155.45L43.96 138.88ZM24.72 191.07L48.19 181.77L47.62 177.77L22.48 187.73C23.16 188.86 23.9 189.97 24.73 191.06L24.72 191.07Z" fill="#BE91F9"/>
<path d="M70.5701 168.68L125.13 185.95L122.21 189.1L64.5701 171.05L70.5701 168.67V168.68ZM119.02 152.34L155.09 155.28L156.57 151.57L121.99 148.75L119.02 152.33V152.34Z" fill="#9A69E8"/>
<path fill-rule="evenodd" clip-rule="evenodd" d="M100.62 217.8C102.08 217.74 103.52 217.64 104.94 217.53L119.69 201.61L117.25 199.85L100.62 217.8ZM171.24 172.28L127.99 188.27L119.77 197.14L122.04 198.78L128 192.35L170.94 176.54C171.16 175.13 171.26 173.7 171.25 172.28H171.24Z" fill="#D2B6FF"/>
<path fill-rule="evenodd" clip-rule="evenodd" d="M143.76 20.87C132.48 9.32 114.53 0 96.81 0C60.49 0 24.76 33.73 24.76 71.07C24.76 91.93 32.44 104.31 51.41 122.69C68.3 139.06 89.63 159.45 94.85 164.07C95.49 164.64 99.68 166.4 99.68 166.4C99.68 166.4 129.83 130.68 140.98 117.59C152.13 104.5 160.66 87.55 160.89 67.73C161.12 47.91 155.05 32.42 143.76 20.87ZM91.92 101.8C86.54 101.8 80.05 100.24 78.14 98.61C71.89 93.28 68.56 83.77 68.56 75.25C68.56 58.33 80.47 38.07 102.12 38.07C119.42 38.07 127.21 53.06 127.21 67.12C127.21 87.62 109.73 101.79 91.92 101.79V101.8Z" fill="url(#paint0_linear_37_19)"/>
<path fill-rule="evenodd" clip-rule="evenodd" d="M143.76 20.87C132.47 9.31999 120.54 3.67999 103.73 3.67999C75.6201 3.67999 37.0801 31.5 37.0801 80.48C37.0801 102.21 45.6001 113.92 64.5601 132.29C83.5201 150.66 99.6801 166.4 99.6801 166.4C99.6801 166.4 129.83 130.68 140.98 117.59C152.13 104.5 160.66 87.55 160.89 67.73C161.12 47.91 155.05 32.42 143.76 20.87ZM91.9201 101.8C86.5401 101.8 80.0501 100.24 78.1401 98.61C71.8901 93.28 68.5601 83.77 68.5601 75.25C68.5601 58.33 80.4701 38.07 102.12 38.07C119.42 38.07 127.21 53.06 127.21 67.12C127.21 87.62 109.73 101.79 91.9201 101.79V101.8Z" fill="#E7255F"/>
<path fill-rule="evenodd" clip-rule="evenodd" d="M102.13 38.08C119.43 38.08 127.22 53.07 127.22 67.13C127.22 87.63 109.74 101.8 91.9299 101.8C86.5499 101.8 80.0599 100.24 78.1499 98.61C79.8099 100.08 84.9299 105.61 96.0799 105.61C113.9 105.61 130.42 89.53 130.42 69.03C130.42 52.28 119.44 38.07 102.14 38.07L102.13 38.08Z" fill="url(#paint1_linear_37_19)"/>
<path d="M235.88 205.67C237.01 207.08 237.57 208.68 237.57 210.47C237.57 212 237.17 213.38 236.38 214.6C235.59 215.82 234.44 216.79 232.94 217.5C231.44 218.21 229.69 218.56 227.7 218.56H215.67V188.49H227.14C229.19 188.49 230.95 188.84 232.42 189.53C233.89 190.22 235 191.15 235.75 192.32C236.5 193.49 236.88 194.79 236.88 196.24C236.88 197.97 236.42 199.41 235.5 200.57C234.58 201.72 233.34 202.58 231.78 203.12C233.4 203.41 234.77 204.26 235.89 205.67H235.88ZM220.61 201.13H226.71C228.33 201.13 229.59 200.76 230.5 200.03C231.41 199.3 231.86 198.23 231.86 196.85C231.86 195.47 231.41 194.43 230.5 193.67C229.59 192.91 228.33 192.52 226.71 192.52H220.61V201.13ZM231.21 213.33C232.16 212.52 232.64 211.4 232.64 209.96C232.64 208.52 232.13 207.32 231.13 206.46C230.12 205.59 228.78 205.16 227.11 205.16H220.62V214.55H227.28C228.95 214.55 230.27 214.15 231.22 213.34L231.21 213.33ZM252.39 216.9C250.04 215.59 248.18 213.76 246.81 211.4C245.44 209.05 244.75 206.4 244.75 203.46C244.75 200.52 245.43 197.88 246.81 195.54C248.18 193.2 250.04 191.38 252.39 190.07C254.74 188.76 257.32 188.1 260.11 188.1C262.9 188.1 265.53 188.76 267.88 190.07C270.23 191.38 272.08 193.21 273.44 195.54C274.8 197.88 275.47 200.52 275.47 203.46C275.47 206.4 274.79 209.05 273.44 211.4C272.08 213.75 270.23 215.58 267.88 216.9C265.53 218.21 262.94 218.87 260.11 218.87C257.28 218.87 254.74 218.21 252.39 216.9ZM265.43 213.22C266.99 212.31 268.21 211.01 269.09 209.33C269.97 207.64 270.41 205.69 270.41 203.47C270.41 201.25 269.97 199.3 269.09 197.63C268.21 195.96 266.99 194.67 265.43 193.78C263.87 192.89 262.1 192.44 260.11 192.44C258.12 192.44 256.35 192.89 254.79 193.78C253.23 194.68 252.01 195.96 251.13 197.63C250.25 199.3 249.81 201.25 249.81 203.47C249.81 205.69 250.25 207.65 251.13 209.33C252.01 211.02 253.23 212.32 254.79 213.22C256.35 214.13 258.12 214.58 260.11 214.58C262.1 214.58 263.87 214.13 265.43 213.22ZM289.77 216.9C287.42 215.59 285.56 213.76 284.19 211.4C282.82 209.05 282.13 206.4 282.13 203.46C282.13 200.52 282.81 197.88 284.19 195.54C285.56 193.2 287.42 191.38 289.77 190.07C292.12 188.76 294.7 188.1 297.49 188.1C300.28 188.1 302.91 188.76 305.26 190.07C307.61 191.38 309.46 193.21 310.82 195.54C312.18 197.88 312.85 200.52 312.85 203.46C312.85 206.4 312.17 209.05 310.82 211.4C309.46 213.75 307.61 215.58 305.26 216.9C302.91 218.21 300.32 218.87 297.49 218.87C294.66 218.87 292.12 218.21 289.77 216.9ZM302.82 213.22C304.38 212.31 305.6 211.01 306.48 209.33C307.36 207.64 307.8 205.69 307.8 203.47C307.8 201.25 307.36 199.3 306.48 197.63C305.6 195.96 304.38 194.67 302.82 193.78C301.26 192.89 299.49 192.44 297.5 192.44C295.51 192.44 293.74 192.89 292.18 193.78C290.62 194.68 289.4 195.96 288.52 197.63C287.64 199.3 287.2 201.25 287.2 203.47C287.2 205.69 287.64 207.65 288.52 209.33C289.4 211.02 290.62 212.32 292.18 213.22C293.74 214.13 295.51 214.58 297.5 214.58C299.49 214.58 301.26 214.13 302.82 213.22ZM325.62 217.81C324 217.1 322.73 216.1 321.81 214.8C320.89 213.5 320.43 211.99 320.43 210.26H325.71C325.83 211.56 326.34 212.63 327.25 213.46C328.16 214.3 329.43 214.71 331.08 214.71C332.73 214.71 334.11 214.3 335.06 213.48C336.01 212.66 336.49 211.6 336.49 210.3C336.49 209.29 336.19 208.47 335.6 207.83C335.01 207.2 334.27 206.71 333.39 206.36C332.51 206.01 331.29 205.64 329.73 205.24C327.77 204.72 326.17 204.2 324.95 203.66C323.72 203.13 322.68 202.3 321.81 201.17C320.94 200.04 320.51 198.55 320.51 196.67C320.51 194.94 320.94 193.42 321.81 192.13C322.68 190.84 323.89 189.84 325.45 189.14C327.01 188.45 328.81 188.1 330.86 188.1C333.77 188.1 336.16 188.83 338.02 190.28C339.88 191.74 340.91 193.74 341.11 196.27H335.66C335.57 195.17 335.05 194.24 334.1 193.46C333.15 192.68 331.89 192.29 330.34 192.29C328.93 192.29 327.77 192.65 326.88 193.37C325.98 194.09 325.54 195.13 325.54 196.49C325.54 197.41 325.82 198.17 326.38 198.76C326.94 199.35 327.66 199.82 328.52 200.17C329.39 200.52 330.57 200.89 332.07 201.3C334.06 201.85 335.68 202.4 336.94 202.94C338.2 203.49 339.26 204.33 340.14 205.47C341.02 206.61 341.46 208.13 341.46 210.03C341.46 211.56 341.05 213 340.23 214.36C339.41 215.72 338.21 216.8 336.64 217.63C335.07 218.45 333.21 218.86 331.08 218.86C329.06 218.86 327.24 218.51 325.63 217.8L325.62 217.81ZM370.19 188.49V192.52H362.19V218.57H357.26V192.52H349.21V188.49H370.2H370.19ZM383.56 192.47V201.3H393.94V205.32H383.56V214.54H395.24V218.56H378.62V188.44H395.24V192.46H383.56V192.47ZM409.53 214.28H423.51V218.56H403.69V214.71L417.62 192.77H403.69V188.49H423.51V192.34L409.53 214.28ZM473.01 188.49L461.72 218.56H456.01L444.67 188.49H449.95L458.86 213.5L467.82 188.49H473.01ZM486.57 216.9C484.22 215.59 482.36 213.76 480.99 211.4C479.62 209.05 478.93 206.4 478.93 203.46C478.93 200.52 479.61 197.88 480.99 195.54C482.36 193.2 484.22 191.38 486.57 190.07C488.92 188.76 491.5 188.1 494.29 188.1C497.08 188.1 499.71 188.76 502.06 190.07C504.41 191.38 506.26 193.21 507.62 195.54C508.98 197.88 509.65 200.52 509.65 203.46C509.65 206.4 508.97 209.05 507.62 211.4C506.26 213.75 504.41 215.58 502.06 216.9C499.71 218.21 497.12 218.87 494.29 218.87C491.46 218.87 488.92 218.21 486.57 216.9ZM499.62 213.22C501.18 212.31 502.4 211.01 503.28 209.33C504.16 207.64 504.6 205.69 504.6 203.47C504.6 201.25 504.16 199.3 503.28 197.63C502.4 195.96 501.18 194.67 499.62 193.78C498.06 192.89 496.29 192.44 494.3 192.44C492.31 192.44 490.54 192.89 488.98 193.78C487.42 194.68 486.2 195.96 485.32 197.63C484.44 199.3 484 201.25 484 203.47C484 205.69 484.44 207.65 485.32 209.33C486.2 211.02 487.42 212.32 488.98 213.22C490.54 214.13 492.31 214.58 494.3 214.58C496.29 214.58 498.06 214.13 499.62 213.22ZM537.39 188.49V192.52H529.39V218.57H524.46V192.52H516.41V188.49H537.4H537.39ZM561.45 218.57L554.53 206.54H550.77V218.57H545.84V188.5H556.23C558.54 188.5 560.49 188.9 562.09 189.71C563.69 190.52 564.89 191.6 565.68 192.96C566.47 194.32 566.87 195.83 566.87 197.5C566.87 199.46 566.3 201.24 565.16 202.84C564.02 204.44 562.27 205.53 559.9 206.11L567.34 218.57H561.45ZM550.77 202.6H556.22C558.07 202.6 559.46 202.14 560.4 201.22C561.34 200.3 561.81 199.06 561.81 197.5C561.81 195.94 561.35 194.72 560.43 193.84C559.51 192.96 558.11 192.52 556.23 192.52H550.78V202.6H550.77ZM581.57 192.47V201.3H591.95V205.32H581.57V214.54H593.25V218.56H576.63V188.44H593.25V192.46H581.57V192.47ZM643.41 188.49L632.12 218.56H626.41L615.07 188.49H620.35L629.26 213.5L638.22 188.49H643.41ZM655.91 188.49V218.56H650.98V188.49H655.91ZM670.32 217.81C668.7 217.1 667.43 216.1 666.51 214.8C665.59 213.5 665.13 211.99 665.13 210.26H670.41C670.53 211.56 671.04 212.63 671.95 213.46C672.86 214.3 674.13 214.71 675.78 214.71C677.43 214.71 678.81 214.3 679.76 213.48C680.71 212.66 681.19 211.6 681.19 210.3C681.19 209.29 680.89 208.47 680.3 207.83C679.71 207.2 678.97 206.71 678.09 206.36C677.21 206.01 675.99 205.64 674.43 205.24C672.47 204.72 670.87 204.2 669.65 203.66C668.42 203.13 667.38 202.3 666.51 201.17C665.64 200.04 665.21 198.55 665.21 196.67C665.21 194.94 665.64 193.42 666.51 192.13C667.38 190.83 668.59 189.84 670.15 189.14C671.71 188.45 673.51 188.1 675.56 188.1C678.47 188.1 680.86 188.83 682.72 190.28C684.58 191.74 685.61 193.74 685.81 196.27H680.36C680.27 195.17 679.75 194.24 678.8 193.46C677.85 192.68 676.59 192.29 675.04 192.29C673.63 192.29 672.47 192.65 671.58 193.37C670.68 194.09 670.24 195.13 670.24 196.49C670.24 197.41 670.52 198.17 671.08 198.76C671.64 199.35 672.36 199.82 673.22 200.17C674.09 200.52 675.27 200.89 676.77 201.3C678.76 201.85 680.38 202.4 681.64 202.94C682.9 203.49 683.96 204.33 684.84 205.47C685.72 206.61 686.16 208.13 686.16 210.03C686.16 211.56 685.75 213 684.93 214.36C684.11 215.72 682.91 216.8 681.34 217.63C679.77 218.45 677.91 218.86 675.78 218.86C673.76 218.86 671.94 218.51 670.33 217.8L670.32 217.81ZM700.4 188.49V218.56H695.47V188.49H700.4ZM730.56 205.67C731.69 207.08 732.25 208.68 732.25 210.47C732.25 212 731.85 213.38 731.06 214.6C730.27 215.83 729.12 216.79 727.62 217.5C726.12 218.21 724.37 218.56 722.38 218.56H710.35V188.49H721.82C723.87 188.49 725.63 188.84 727.1 189.53C728.57 190.22 729.68 191.15 730.43 192.32C731.18 193.49 731.56 194.79 731.56 196.24C731.56 197.97 731.1 199.41 730.18 200.57C729.26 201.72 728.02 202.58 726.46 203.12C728.08 203.41 729.45 204.26 730.57 205.67H730.56ZM715.28 201.13H721.38C723 201.13 724.26 200.76 725.17 200.03C726.08 199.3 726.53 198.23 726.53 196.85C726.53 195.47 726.08 194.43 725.17 193.67C724.26 192.91 723 192.52 721.38 192.52H715.28V201.13ZM725.88 213.33C726.83 212.52 727.31 211.4 727.31 209.96C727.31 208.52 726.8 207.32 725.8 206.46C724.79 205.59 723.45 205.16 721.78 205.16H715.29V214.55H721.95C723.62 214.55 724.94 214.15 725.89 213.34L725.88 213.33ZM746 188.49V218.56H741.07V188.49H746ZM760.89 214.59H771.06V218.57H755.96V188.5H760.89V214.59ZM783.56 188.49V218.56H778.63V188.49H783.56ZM812.94 188.49V192.52H804.94V218.57H800.01V192.52H791.96V188.49H812.95H812.94ZM826.31 192.47V201.3H836.69V205.32H826.31V214.54H837.99V218.56H821.37V188.44H837.99V192.46H826.31V192.47ZM833.93 182.05L824.37 186.77V183.13L833.93 177.85V182.05ZM867.16 214.59H877.33V218.57H862.23V188.5H867.16V214.59ZM890.9 216.9C888.55 215.59 886.69 213.76 885.32 211.4C883.95 209.05 883.26 206.4 883.26 203.46C883.26 200.52 883.94 197.88 885.32 195.54C886.69 193.2 888.55 191.38 890.9 190.07C893.25 188.76 895.83 188.1 898.62 188.1C901.41 188.1 904.04 188.76 906.39 190.07C908.74 191.38 910.59 193.21 911.95 195.54C913.31 197.88 913.98 200.52 913.98 203.46C913.98 206.4 913.3 209.05 911.95 211.4C910.59 213.75 908.74 215.58 906.39 216.9C904.04 218.21 901.45 218.87 898.62 218.87C895.79 218.87 893.25 218.21 890.9 216.9ZM903.94 213.22C905.5 212.31 906.72 211.01 907.6 209.33C908.48 207.64 908.92 205.69 908.92 203.47C908.92 201.25 908.48 199.3 907.6 197.63C906.72 195.96 905.5 194.67 903.94 193.78C902.38 192.89 900.61 192.44 898.62 192.44C896.63 192.44 894.86 192.89 893.3 193.78C891.74 194.68 890.52 195.96 889.64 197.63C888.76 199.3 888.32 201.25 888.32 203.47C888.32 205.69 888.76 207.65 889.64 209.33C890.52 211.02 891.74 212.32 893.3 213.22C894.86 214.13 896.63 214.58 898.62 214.58C900.61 214.58 902.38 214.13 903.94 213.22ZM922.7 195.55C924.07 193.21 925.93 191.39 928.28 190.08C930.63 188.77 933.21 188.11 936 188.11C939.2 188.11 942.05 188.9 944.55 190.47C947.04 192.04 948.86 194.27 949.98 197.16H944.05C943.27 195.57 942.19 194.39 940.8 193.61C939.41 192.83 937.81 192.44 936 192.44C934.01 192.44 932.24 192.89 930.68 193.78C929.12 194.68 927.9 195.96 927.02 197.63C926.14 199.3 925.7 201.25 925.7 203.47C925.7 205.69 926.14 207.64 927.02 209.31C927.9 210.98 929.12 212.27 930.68 213.18C932.24 214.09 934.01 214.54 936 214.54C937.82 214.54 939.42 214.15 940.8 213.37C942.18 212.59 943.27 211.41 944.05 209.82H949.98C948.86 212.71 947.04 214.93 944.55 216.48C942.05 218.04 939.21 218.82 936 218.82C933.17 218.82 930.59 218.16 928.25 216.85C925.91 215.54 924.06 213.71 922.69 211.38C921.32 209.05 920.63 206.4 920.63 203.46C920.63 200.52 921.31 197.88 922.69 195.54L922.7 195.55ZM977.33 212.42H964.74L962.58 218.56H957.43L968.2 188.44H973.91L984.68 218.56H979.49L977.33 212.42ZM975.95 208.4L971.06 194.42L966.13 208.4H975.95ZM997.76 214.59H1007.93V218.57H992.83V188.5H997.76V214.59ZM1020.43 192.47V201.3H1030.81V205.32H1020.43V214.54H1032.11V218.56H1015.49V188.44H1032.11V192.46H1020.43V192.47Z" fill="#343434"/>
<path d="M837.35 104.53C847.125 104.53 855.05 96.6054 855.05 86.83C855.05 77.0546 847.125 69.13 837.35 69.13C827.575 69.13 819.65 77.0546 819.65 86.83C819.65 96.6054 827.575 104.53 837.35 104.53Z" fill="#E7255F"/>
<path d="M299.2 120C299.24 121.31 299.26 122.35 299.26 123.11C299.26 128.86 298.22 134.15 296.15 138.97C294.08 143.79 291.2 147.94 287.52 151.4C283.84 154.87 279.51 157.55 274.52 159.46C269.53 161.36 264.12 162.31 258.28 162.31C251.43 162.31 245.15 161.15 239.44 158.82C233.73 156.49 228.8 153.26 224.66 149.11C220.51 144.97 217.32 140.1 215.08 134.52C212.84 128.94 211.72 122.89 211.72 116.38C211.72 109.87 212.88 103.84 215.21 98.3C217.54 92.76 220.83 87.94 225.11 83.84C229.38 79.74 234.39 76.54 240.14 74.26C245.89 71.98 252.19 70.83 259.04 70.83C263.78 70.83 268.3 71.46 272.62 72.73C276.93 74 280.87 75.73 284.42 77.93C284.87 78.21 285.31 78.49 285.74 78.78C290.22 81.79 290.8 88.18 287.09 92.09C284.17 95.17 279.42 95.8 275.9 93.42C275.47 93.13 275.03 92.85 274.59 92.58C272.18 91.1 269.66 89.96 267.04 89.15C264.42 88.35 261.71 87.94 258.92 87.94C254.94 87.94 251.29 88.66 247.95 90.1C244.61 91.54 241.67 93.53 239.13 96.06C236.59 98.6 234.63 101.6 233.23 105.07C231.83 108.54 231.14 112.3 231.14 116.36C231.14 120.42 231.88 124.08 233.36 127.59C234.84 131.1 236.87 134.15 239.45 136.73C242.03 139.31 245.05 141.34 248.52 142.82C251.99 144.3 255.71 145.04 259.69 145.04C262.48 145.04 265.15 144.62 267.68 143.77C270.22 142.93 272.44 141.72 274.34 140.15C276.25 138.58 277.74 136.73 278.8 134.6C279.76 132.68 280.23 130.56 280.33 128.41H265.46C261.08 128.41 257.53 124.86 257.53 120.48C257.53 116.1 261.08 112.55 265.46 112.55H298.64C298.72 113.48 298.83 114.62 298.96 115.98C299.09 117.33 299.17 118.67 299.21 119.98L299.2 120ZM364.83 114.45C365.85 117.38 364.35 120.59 361.44 121.68L321.87 136.51C322.98 138.27 324.29 139.77 325.8 141C328.46 143.17 331.57 144.46 335.12 144.89C338.67 145.32 342.46 144.78 346.5 143.27C349.27 142.23 351.64 140.85 353.61 139.11C354.26 138.54 354.9 137.89 355.54 137.17C358.02 134.34 362.23 133.81 365.36 135.91C369.14 138.45 369.78 143.71 366.79 147.16C366.51 147.48 366.22 147.8 365.93 148.12C363.68 150.55 361.22 152.66 358.56 154.47C355.9 156.28 353.14 157.72 350.29 158.79C343.48 161.34 337.02 162.18 330.91 161.31C324.8 160.44 319.42 158.12 314.76 154.36C310.1 150.6 306.6 145.59 304.25 139.33C302.44 134.5 301.57 129.77 301.64 125.13C301.71 120.5 302.62 116.16 304.35 112.12C306.09 108.08 308.61 104.52 311.93 101.42C315.24 98.33 319.19 95.92 323.79 94.2C328.07 92.6 332.32 91.89 336.54 92.07C340.76 92.25 344.73 93.25 348.43 95.07C352.14 96.89 355.42 99.43 358.27 102.7C361.12 105.97 363.31 109.89 364.84 114.46L364.83 114.45ZM346.82 114.83C345.86 112.75 344.44 111.07 342.56 109.79C340.68 108.51 338.61 107.75 336.35 107.51C334.09 107.27 331.78 107.6 329.4 108.49C325.91 109.8 323.22 111.58 321.31 113.83C319.4 116.08 318.3 118.75 318.01 121.84C317.88 123.21 317.93 124.64 318.13 126.13L347 115.32L346.82 114.84V114.83ZM323.66 87.47C325.22 89.86 328.35 90.66 330.87 89.31L344.16 82.16C347.86 80.17 348.95 75.36 346.47 71.97C344.13 68.77 339.58 68.19 336.5 70.69L324.8 80.22C322.62 81.99 322.13 85.13 323.67 87.48L323.66 87.47ZM440.22 127.42C440.22 134.19 438.7 140.19 435.65 145.44C432.61 150.69 428.4 154.81 423.03 157.81C417.66 160.81 411.59 162.31 404.82 162.31C398.05 162.31 391.86 160.81 386.49 157.81C381.12 154.81 376.89 150.69 373.8 145.44C370.71 140.2 369.17 134.19 369.17 127.42C369.17 120.65 370.71 114.67 373.8 109.47C376.89 104.27 381.12 100.14 386.49 97.1C391.86 94.06 397.97 92.53 404.82 92.53C411.67 92.53 417.65 94.05 423.03 97.1C428.4 100.14 432.61 104.27 435.65 109.47C438.7 114.67 440.22 120.66 440.22 127.42ZM422.08 127.42C422.08 123.7 421.34 120.38 419.86 117.46C418.38 114.54 416.33 112.26 413.71 110.61C411.09 108.96 408.13 108.14 404.83 108.14C401.53 108.14 398.44 108.99 395.82 110.68C393.2 112.37 391.13 114.66 389.6 117.53C388.08 120.41 387.36 123.71 387.44 127.43C387.36 131.07 388.07 134.34 389.6 137.26C391.12 140.18 393.19 142.46 395.82 144.11C398.44 145.76 401.44 146.58 404.83 146.58C408.22 146.58 411.09 145.76 413.71 144.11C416.33 142.46 418.38 140.18 419.86 137.26C421.34 134.34 422.08 131.07 422.08 127.43V127.42Z" fill="#E7255F"/>
<path d="M447.11 152.48V73.07H482.15C486.82 73.07 491.06 74.24 494.87 76.57C498.68 78.91 501.73 82.08 504.03 86.1C506.32 90.12 507.47 94.58 507.47 99.5C507.47 104.42 506.32 108.89 504.03 112.9C501.73 116.92 498.68 120.13 494.87 122.55C491.06 124.97 486.82 126.18 482.15 126.18H460.39V152.49C460.39 156.16 457.42 159.13 453.75 159.13C450.08 159.13 447.11 156.16 447.11 152.49V152.48ZM460.38 113.39H481.89C484.1 113.39 486.11 112.76 487.91 111.48C489.71 110.21 491.17 108.53 492.27 106.44C493.37 104.35 493.93 102.04 493.93 99.49C493.93 96.94 493.38 94.66 492.27 92.61C491.16 90.56 489.71 88.92 487.91 87.69C486.11 86.46 484.1 85.85 481.89 85.85H460.38V113.39ZM513.98 152.72V100.97C513.98 97.44 516.84 94.58 520.37 94.58C523.9 94.58 526.76 97.44 526.76 100.97V114.86L525.53 109.94C526.43 106.83 527.97 104 530.14 101.46C532.31 98.92 534.81 96.91 537.64 95.44C540.47 93.97 543.4 93.23 546.43 93.23C547.82 93.23 549.15 93.35 550.43 93.6C550.44 93.6 550.46 93.6 550.47 93.6C552.13 93.92 553.17 95.59 552.77 97.24L550.88 105.07C550.49 106.7 548.84 107.69 547.21 107.27C547.09 107.24 546.98 107.21 546.86 107.18C545.67 106.89 544.5 106.75 543.36 106.75C541.15 106.75 539.04 107.18 537.03 108.04C535.02 108.9 533.26 110.09 531.74 111.61C530.22 113.13 529.01 114.89 528.11 116.9C527.21 118.91 526.76 121.1 526.76 123.48V152.74C526.76 156.27 523.9 159.13 520.37 159.13C516.84 159.13 513.98 156.27 513.98 152.74V152.72ZM585.03 160.35C578.39 160.35 572.51 158.94 567.39 156.11C562.27 153.28 558.25 149.41 555.34 144.49C552.43 139.57 550.98 133.92 550.98 127.53C550.98 122.45 551.8 117.82 553.44 113.64C555.08 109.46 557.35 105.83 560.26 102.76C563.17 99.69 566.65 97.31 570.71 95.63C574.77 93.95 579.17 93.11 583.93 93.11C588.11 93.11 592 93.91 595.61 95.51C599.22 97.11 602.35 99.3 605.01 102.09C607.67 104.88 609.72 108.18 611.16 111.99C612.59 115.8 613.27 119.96 613.19 124.47C613.12 127.48 610.66 129.88 607.66 129.88H560.33L557.5 119.8H602.12L600.28 121.89V118.94C600.03 116.24 599.13 113.82 597.58 111.69C596.02 109.56 594.06 107.88 591.68 106.65C589.3 105.42 586.72 104.81 583.94 104.81C579.51 104.81 575.78 105.65 572.75 107.33C569.72 109.01 567.42 111.47 565.87 114.71C564.31 117.95 563.53 121.94 563.53 126.7C563.53 131.21 564.47 135.12 566.36 138.44C568.24 141.76 570.91 144.32 574.35 146.12C577.79 147.92 581.77 148.82 586.27 148.82C589.47 148.82 592.44 148.29 595.18 147.22C596.68 146.64 598.25 145.8 599.88 144.7C602.35 143.04 605.71 143.71 607.44 146.14C609.27 148.71 608.62 152.32 605.96 154.03C605.12 154.57 604.23 155.09 603.29 155.58C600.46 157.06 597.47 158.22 594.32 159.08C591.16 159.94 588.07 160.37 585.04 160.37L585.03 160.35ZM642.57 160.35C637.16 160.35 632.28 159.41 627.94 157.52C625.73 156.56 623.71 155.37 621.88 153.94C619.07 151.75 619.07 147.49 621.77 145.18C623.87 143.38 626.95 143.35 629.09 145.1C630.58 146.32 632.14 147.28 633.78 147.99C636.69 149.26 639.99 149.9 643.68 149.9C645.16 149.9 646.53 149.72 647.8 149.35C649.07 148.98 650.18 148.43 651.12 147.69C652.06 146.95 652.78 146.07 653.27 145.05C653.76 144.03 654.01 142.9 654.01 141.67C654.01 139.54 653.23 137.82 651.67 136.51C650.85 135.94 649.56 135.3 647.8 134.6C646.04 133.9 643.76 133.19 640.98 132.45C636.23 131.22 632.33 129.83 629.3 128.27C626.27 126.71 623.93 124.95 622.29 122.98C621.06 121.42 620.16 119.72 619.59 117.88C619.02 116.04 618.73 114.01 618.73 111.79C618.73 109.09 619.32 106.61 620.51 104.35C621.7 102.1 623.34 100.13 625.43 98.45C627.52 96.77 629.98 95.48 632.81 94.58C635.64 93.68 638.65 93.23 641.85 93.23C644.88 93.23 647.89 93.64 650.89 94.46C653.88 95.28 656.65 96.47 659.19 98.03C659.84 98.43 660.46 98.84 661.05 99.28C663.75 101.25 664.19 105.1 661.94 107.57C660.02 109.69 656.83 109.97 654.5 108.3C654.08 108 653.66 107.71 653.22 107.43C651.38 106.24 649.51 105.32 647.63 104.66C645.74 104.01 644.02 103.68 642.47 103.68C640.75 103.68 639.19 103.85 637.8 104.17C636.41 104.5 635.24 104.99 634.3 105.65C633.36 106.31 632.64 107.13 632.15 108.11C631.66 109.09 631.41 110.2 631.41 111.43C631.49 112.5 631.76 113.5 632.21 114.44C632.66 115.38 633.3 116.18 634.12 116.84C635.02 117.5 636.37 118.19 638.18 118.93C639.98 119.67 642.28 120.36 645.06 121.02C649.16 122.09 652.54 123.25 655.2 124.52C657.86 125.79 659.97 127.25 661.53 128.88C663.17 130.44 664.32 132.24 664.97 134.29C665.62 136.34 665.95 138.63 665.95 141.17C665.95 144.86 664.91 148.16 662.82 151.07C660.73 153.98 657.92 156.25 654.4 157.89C650.88 159.53 646.94 160.35 642.6 160.35H642.57ZM669.61 100.72C669.61 97.33 672.36 94.57 675.76 94.57H704.53C707.92 94.57 710.68 97.32 710.68 100.72C710.68 104.11 707.93 106.87 704.53 106.87H675.76C672.37 106.87 669.61 104.12 669.61 100.72ZM683.01 152.97V84.25C683.01 80.86 685.76 78.1 689.16 78.1H689.53C692.92 78.1 695.68 80.85 695.68 84.25V152.97C695.68 156.36 692.93 159.12 689.53 159.12H689.16C685.77 159.12 683.01 156.37 683.01 152.97ZM740.54 160.35C735.21 160.35 730.36 158.87 725.97 155.92C721.58 152.97 718.08 148.96 715.46 143.87C712.84 138.79 711.53 133.05 711.53 126.66C711.53 120.27 712.86 114.43 715.53 109.39C718.19 104.35 721.8 100.4 726.35 97.53C730.9 94.66 736 93.23 741.65 93.23C745.01 93.23 748.08 93.72 750.87 94.71C753.66 95.69 756.09 97.07 758.18 98.83C760.27 100.59 761.99 102.62 763.34 104.92C764.69 107.22 765.53 109.67 765.86 112.3L763.03 111.32V100.99C763.03 97.46 765.89 94.6 769.42 94.6C772.95 94.6 775.81 97.46 775.81 100.99V152.74C775.81 156.27 772.95 159.13 769.42 159.13C765.89 159.13 763.03 156.27 763.03 152.74V143.77L765.98 142.91C765.49 145.12 764.48 147.27 762.97 149.36C761.45 151.45 759.53 153.31 757.19 154.95C754.85 156.59 752.27 157.9 749.45 158.88C746.63 159.86 743.65 160.36 740.54 160.36V160.35ZM743.86 148.67C747.71 148.67 751.11 147.73 754.06 145.84C757.01 143.96 759.32 141.35 761.01 138.03C762.69 134.71 763.53 130.92 763.53 126.66C763.53 122.4 762.69 118.75 761.01 115.47C759.33 112.19 757.01 109.61 754.06 107.73C751.11 105.85 747.71 104.9 743.86 104.9C740.01 104.9 736.75 105.84 733.84 107.73C730.93 109.62 728.63 112.2 726.96 115.47C725.28 118.75 724.44 122.48 724.44 126.66C724.44 130.84 725.28 134.71 726.96 138.03C728.64 141.35 730.93 143.95 733.84 145.84C736.75 147.73 740.09 148.67 743.86 148.67ZM782.21 100.72C782.21 97.33 784.96 94.57 788.36 94.57H817.13C820.52 94.57 823.28 97.32 823.28 100.72C823.28 104.11 820.53 106.87 817.13 106.87H788.36C784.97 106.87 782.21 104.12 782.21 100.72ZM795.61 152.97V84.25C795.61 80.86 798.36 78.1 801.76 78.1H802.13C805.52 78.1 808.28 80.85 808.28 84.25V152.97C808.28 156.36 805.53 159.12 802.13 159.12H801.76C798.37 159.12 795.61 156.37 795.61 152.97ZM831.02 152.79V100.91C831.02 97.41 833.85 94.58 837.35 94.58C840.85 94.58 843.68 97.41 843.68 100.91V152.79C843.68 156.29 840.85 159.12 837.35 159.12C833.85 159.12 831.02 156.29 831.02 152.79ZM885.23 160.35C878.92 160.35 873.28 158.9 868.33 155.99C863.37 153.08 859.46 149.11 856.59 144.07C853.72 139.03 852.29 133.27 852.29 126.8C852.29 120.33 853.72 114.57 856.59 109.53C859.46 104.49 863.37 100.52 868.33 97.61C873.29 94.7 878.92 93.25 885.23 93.25C891.54 93.25 897.05 94.71 902.01 97.61C906.97 100.52 910.88 104.49 913.75 109.53C916.62 114.57 918.05 120.33 918.05 126.8C918.05 133.27 916.62 139.03 913.75 144.07C910.88 149.11 906.97 153.09 902.01 155.99C897.05 158.9 891.46 160.35 885.23 160.35ZM885.23 148.79C889.08 148.79 892.52 147.83 895.56 145.9C898.59 143.98 900.97 141.35 902.69 138.03C904.41 134.71 905.23 130.96 905.15 126.78C905.23 122.52 904.41 118.73 902.69 115.41C900.97 112.09 898.59 109.49 895.56 107.6C892.53 105.72 889.08 104.77 885.23 104.77C881.38 104.77 877.92 105.73 874.84 107.66C871.77 109.59 869.37 112.21 867.65 115.53C865.93 118.85 865.11 122.6 865.19 126.78C865.11 130.96 865.93 134.71 867.65 138.03C869.37 141.35 871.77 143.97 874.84 145.9C877.91 147.83 881.37 148.79 885.23 148.79ZM924.93 155.92V100.91C924.93 97.41 927.76 94.58 931.26 94.58C934.76 94.58 937.59 97.41 937.59 100.91V107.86L935.38 109.34C936.2 106.47 937.8 103.83 940.17 101.41C942.55 98.99 945.37 97.03 948.65 95.51C951.93 93.99 955.29 93.24 958.73 93.24C963.65 93.24 967.74 94.2 971.02 96.13C974.3 98.06 976.76 100.99 978.4 104.92C980.04 108.85 980.86 113.81 980.86 119.79V152.8C980.86 156.3 978.03 159.13 974.53 159.13C971.03 159.13 968.2 156.3 968.2 152.8V120.65C968.2 116.96 967.71 113.91 966.72 111.49C965.74 109.07 964.22 107.31 962.17 106.2C960.12 105.09 957.58 104.62 954.55 104.79C952.09 104.79 949.84 105.18 947.79 105.96C945.74 106.74 943.96 107.83 942.44 109.22C940.92 110.61 939.74 112.23 938.87 114.08C938 115.93 937.58 117.91 937.58 120.04V155.94C937.58 157.71 936.15 159.14 934.38 159.14H928.11C926.34 159.14 924.91 157.71 924.91 155.94L924.93 155.92ZM1012.7 160.35C1007.29 160.35 1002.41 159.41 998.07 157.52C995.86 156.56 993.84 155.37 992.01 153.94C989.2 151.75 989.2 147.49 991.9 145.18C994 143.38 997.08 143.35 999.22 145.1C1000.71 146.32 1002.27 147.28 1003.91 147.99C1006.82 149.26 1010.12 149.9 1013.81 149.9C1015.29 149.9 1016.66 149.72 1017.93 149.35C1019.2 148.98 1020.31 148.43 1021.25 147.69C1022.19 146.95 1022.91 146.07 1023.4 145.05C1023.89 144.03 1024.14 142.9 1024.14 141.67C1024.14 139.54 1023.36 137.82 1021.8 136.51C1020.98 135.94 1019.69 135.3 1017.93 134.6C1016.17 133.9 1013.89 133.19 1011.11 132.45C1006.36 131.22 1002.46 129.83 999.43 128.27C996.4 126.71 994.06 124.95 992.42 122.98C991.19 121.42 990.29 119.72 989.72 117.88C989.15 116.04 988.86 114.01 988.86 111.79C988.86 109.09 989.45 106.61 990.64 104.35C991.83 102.1 993.47 100.13 995.56 98.45C997.65 96.77 1000.11 95.48 1002.94 94.58C1005.77 93.68 1008.78 93.23 1011.98 93.23C1015.01 93.23 1018.02 93.64 1021.02 94.46C1024.01 95.28 1026.78 96.47 1029.32 98.03C1029.97 98.43 1030.59 98.84 1031.18 99.28C1033.88 101.25 1034.32 105.1 1032.07 107.57C1030.15 109.69 1026.96 109.97 1024.63 108.3C1024.21 108 1023.79 107.71 1023.35 107.43C1021.51 106.24 1019.64 105.32 1017.76 104.66C1015.87 104.01 1014.15 103.68 1012.6 103.68C1010.88 103.68 1009.32 103.85 1007.93 104.17C1006.54 104.5 1005.37 104.99 1004.43 105.65C1003.49 106.31 1002.77 107.13 1002.28 108.11C1001.79 109.09 1001.54 110.2 1001.54 111.43C1001.62 112.5 1001.89 113.5 1002.34 114.44C1002.79 115.38 1003.43 116.18 1004.25 116.84C1005.15 117.5 1006.5 118.19 1008.31 118.93C1010.11 119.67 1012.41 120.36 1015.19 121.02C1019.29 122.09 1022.67 123.25 1025.33 124.52C1027.99 125.79 1030.1 127.25 1031.66 128.88C1033.3 130.44 1034.45 132.24 1035.1 134.29C1035.75 136.34 1036.08 138.63 1036.08 141.17C1036.08 144.86 1035.04 148.16 1032.95 151.07C1030.86 153.98 1028.05 156.25 1024.53 157.89C1021.01 159.53 1017.07 160.35 1012.73 160.35H1012.7Z" fill="#343434"/>
</g>
<defs>
<linearGradient id="paint0_linear_37_19" x1="92.48" y1="-5.03" x2="92.93" y2="89.75" gradientUnits="userSpaceOnUse">
<stop stop-color="#E7255F"/>
<stop offset="1" stop-color="#991A44"/>
</linearGradient>
<linearGradient id="paint1_linear_37_19" x1="61.7799" y1="110.31" x2="114.35" y2="63.67" gradientUnits="userSpaceOnUse">
<stop stop-color="#E7255F"/>
<stop offset="1" stop-color="#991A44"/>
</linearGradient>
<clipPath id="clip0_37_19">
<rect width="1036.06" height="288" fill="white"/>
</clipPath>
</defs>
</svg>
